<svg width="336" height="501" viewBox="0 0 336 501" fill="none" xmlns="http://www.w3.org/2000/svg">
<path d="M169.462 8L270.325 13.1632C281.052 13.7124 291.28 17.8679 299.35 24.9564C308.976 33.4107 314.794 45.383 315.493 58.175L334.15 399.456C335.286 420.237 326.247 440.272 309.915 453.172L309.164 453.765C297.867 462.689 283.891 467.543 269.495 467.543H96.2245C94.9682 467.543 93.7296 467.839 92.6089 468.406L28.2759 501L45.1359 446.573C45.9012 444.102 45.4249 441.414 43.8572 439.357L31.7114 423.418C24.0505 413.365 19.5379 401.268 18.7428 388.654L8.96228 233.5L1.75389 42.5336C1.28008 29.9814 6.82514 17.9566 16.6794 10.167C24.1556 4.25715 33.5219 1.26009 43.0403 1.73201L169.462 8Z" fill="white"/>
</svg>
